<svg width="32" height="32" viewBox="0 0 32 32" fill="none" xmlns="http://www.w3.org/2000/svg">
<path opacity="0.4" d="M16 2.66666C12.5067 2.66666 9.66669 5.50666 9.66669 8.99999C9.66669 12.4267 12.3467 15.2 15.84 15.32C15.9467 15.3067 16.0534 15.3067 16.1334 15.32C16.16 15.32 16.1734 15.32 16.2 15.32C16.2134 15.32 16.2134 15.32 16.2267 15.32C19.64 15.2 22.32 12.4267 22.3334 8.99999C22.3334 5.50666 19.4934 2.66666 16 2.66666Z" fill="#7A93CC"/>
<path d="M22.7733 18.8667C19.0533 16.3867 12.9867 16.3867 9.24001 18.8667C7.54668 20 6.61334 21.5333 6.61334 23.1733C6.61334 24.8133 7.54668 26.3333 9.22668 27.4533C11.0933 28.7067 13.5467 29.3333 16 29.3333C18.4533 29.3333 20.9067 28.7067 22.7733 27.4533C24.4533 26.32 25.3867 24.8 25.3867 23.1467C25.3733 21.5067 24.4533 19.9867 22.7733 18.8667Z" fill="#7A93CC"/>
</svg>
