<svg width="32" height="32" viewBox="0 0 32 32" fill="none" xmlns="http://www.w3.org/2000/svg">
<path opacity="0.4" d="M22.6667 24.5733H17.3334L11.4 28.52C10.52 29.1067 9.33335 28.48 9.33335 27.4133V24.5733C5.33335 24.5733 2.66669 21.9067 2.66669 17.9067V9.90666C2.66669 5.90666 5.33335 3.23999 9.33335 3.23999H22.6667C26.6667 3.23999 29.3334 5.90666 29.3334 9.90666V17.9067C29.3334 21.9067 26.6667 24.5733 22.6667 24.5733Z" fill="#7A93CC"/>
<path d="M16 16.1466C15.4533 16.1466 15 15.6933 15 15.1466V14.8667C15 13.32 16.1333 12.56 16.56 12.2667C17.0533 11.9333 17.2133 11.7067 17.2133 11.36C17.2133 10.6933 16.6666 10.1466 16 10.1466C15.3333 10.1466 14.7867 10.6933 14.7867 11.36C14.7867 11.9067 14.3333 12.36 13.7867 12.36C13.24 12.36 12.7867 11.9067 12.7867 11.36C12.7867 9.58668 14.2266 8.14664 16 8.14664C17.7733 8.14664 19.2133 9.58668 19.2133 11.36C19.2133 12.88 18.0933 13.64 17.68 13.92C17.16 14.2667 17 14.4934 17 14.8667V15.1466C17 15.7066 16.5466 16.1466 16 16.1466Z" fill="#7A93CC"/>
<path d="M16 19.4666C15.44 19.4666 15 19.0133 15 18.4666C15 17.92 15.4533 17.4666 16 17.4666C16.5467 17.4666 17 17.92 17 18.4666C17 19.0133 16.56 19.4666 16 19.4666Z" fill="#7A93CC"/>
</svg>
