<svg width="32" height="32" viewBox="0 0 32 32" fill="none" xmlns="http://www.w3.org/2000/svg">
<path opacity="0.4" d="M17.1867 7.84H6.81333C4.53333 7.84 2.66669 9.70664 2.66669 11.9866V27.1333C2.66669 29.0667 4.05335 29.8933 5.74668 28.9466L10.9867 26.0266C11.5467 25.72 12.4534 25.72 13 26.0266L18.24 28.9466C19.9333 29.8933 21.32 29.0667 21.32 27.1333V11.9866C21.3333 9.70664 19.4667 7.84 17.1867 7.84Z" fill="#7A93CC"/>
<path d="M29.3334 6.8133V21.96C29.3334 23.8933 27.9467 24.7066 26.2534 23.7733L21.3334 21.0266V11.9866C21.3334 9.70664 19.4667 7.84 17.1867 7.84H10.6667V6.8133C10.6667 4.5333 12.5333 2.66666 14.8133 2.66666H25.1867C27.4667 2.66666 29.3334 4.5333 29.3334 6.8133Z" fill="#7A93CC"/>
</svg>
