<svg width="0" height="0" class="hidden">
  <symbol fill="none" xmlns="http://www.w3.org/2000/svg" viewBox="0 0 24 24" id="bell">
    <path d="M12.02 2.91C8.71003 2.91 6.02003 5.6 6.02003 8.91V11.8C6.02003 12.41 5.76003 13.34 5.45003 13.86L4.30003 15.77C3.59003 16.95 4.08003 18.26 5.38003 18.7C9.69003 20.14 14.34 20.14 18.65 18.7C19.86 18.3 20.39 16.87 19.73 15.77L18.58 13.86C18.28 13.34 18.02 12.41 18.02 11.8V8.91C18.02 5.61 15.32 2.91 12.02 2.91Z" stroke="#7A93CC" stroke-width="1.5" stroke-miterlimit="10" stroke-linecap="round"></path>
    <path d="M13.87 3.2C13.56 3.11 13.24 3.04 12.91 3C11.95 2.88 11.03 2.95 10.17 3.2C10.46 2.46 11.18 1.94 12.02 1.94C12.86 1.94 13.58 2.46 13.87 3.2Z" stroke="#7A93CC" stroke-width="1.5" stroke-miterlimit="10" stroke-linecap="round" stroke-linejoin="round"></path>
    <path d="M15.02 19.06C15.02 20.71 13.67 22.06 12.02 22.06C11.2 22.06 10.44 21.72 9.90002 21.18C9.36002 20.64 9.02002 19.88 9.02002 19.06" stroke="#7A93CC" stroke-width="1.5" stroke-miterlimit="10"></path>
  </symbol>
  <symbol fill="none" xmlns="http://www.w3.org/2000/svg" viewBox="0 0 32 32" id="call">
    <path opacity="0.4" d="M15.72 18.9467L11.36 23.3067C10.88 22.88 10.4134 22.44 9.96002 21.9867C8.58669 20.6 7.34669 19.1467 6.24002 17.6267C5.14669 16.1067 4.26669 14.5867 3.62669 13.08C2.98669 11.56 2.66669 10.1067 2.66669 8.72001C2.66669 7.81334 2.82669 6.94667 3.14669 6.14667C3.46669 5.33334 3.97335 4.58667 4.68002 3.92001C5.53335 3.08001 6.46669 2.66667 7.45335 2.66667C7.82669 2.66667 8.20002 2.74667 8.53335 2.90667C8.88002 3.06667 9.18669 3.30667 9.42669 3.65334L12.52 8.01334C12.76 8.34667 12.9334 8.65334 13.0534 8.94667C13.1734 9.22667 13.24 9.50667 13.24 9.76001C13.24 10.08 13.1467 10.4 12.96 10.7067C12.7867 11.0133 12.5334 11.3333 12.2134 11.6533L11.2 12.7067C11.0534 12.8533 10.9867 13.0267 10.9867 13.24C10.9867 13.3467 11 13.44 11.0267 13.5467C11.0667 13.6533 11.1067 13.7333 11.1334 13.8133C11.3734 14.2533 11.7867 14.8267 12.3734 15.52C12.9734 16.2133 13.6134 16.92 14.3067 17.6267C14.7867 18.0933 15.2534 18.5467 15.72 18.9467Z" fill="#7A93CC"></path>
    <path d="M29.2933 24.44C29.2933 24.8133 29.2267 25.2 29.0933 25.5733C29.0533 25.68 29.0133 25.7867 28.96 25.8933C28.7333 26.3733 28.44 26.8267 28.0533 27.2533C27.4 27.9733 26.68 28.4933 25.8667 28.8267C25.8533 28.8267 25.84 28.84 25.8267 28.84C25.04 29.16 24.1867 29.3333 23.2667 29.3333C21.9067 29.3333 20.4533 29.0133 18.92 28.36C17.3867 27.7067 15.8533 26.8267 14.3333 25.72C13.8133 25.3333 13.2933 24.9467 12.8 24.5333L17.16 20.1733C17.5333 20.4533 17.8667 20.6667 18.1467 20.8133C18.2133 20.84 18.2933 20.88 18.3867 20.92C18.4933 20.96 18.6 20.9733 18.72 20.9733C18.9467 20.9733 19.12 20.8933 19.2667 20.7467L20.28 19.7467C20.6133 19.4133 20.9333 19.16 21.24 19C21.5467 18.8133 21.8533 18.72 22.1867 18.72C22.44 18.72 22.7067 18.7733 23 18.8933C23.2933 19.0133 23.6 19.1867 23.9333 19.4133L28.3467 22.5467C28.6933 22.7867 28.9333 23.0667 29.08 23.4C29.2133 23.7333 29.2933 24.0667 29.2933 24.44Z" fill="#7A93CC"></path>
  </symbol>
  <symbol fill="none" xmlns="http://www.w3.org/2000/svg" viewBox="0 0 24 24" id="folder">
    <path d="M22 11V17C22 21 21 22 17 22H7C3 22 2 21 2 17V7C2 3 3 2 7 2H8.5C10 2 10.33 2.44 10.9 3.2L12.4 5.2C12.78 5.7 13 6 14 6H17C21 6 22 7 22 11Z" stroke="#7A93CC" stroke-width="1.5" stroke-miterlimit="10"></path>
  </symbol>
  <symbol fill="none" xmlns="http://www.w3.org/2000/svg" viewBox="0 0 24 24" id="globe">
    <path d="M12 22C17.5228 22 22 17.5228 22 12C22 6.47715 17.5228 2 12 2C6.47715 2 2 6.47715 2 12C2 17.5228 6.47715 22 12 22Z" stroke="#7A93CC" stroke-width="1.5" stroke-linecap="round" stroke-linejoin="round"></path>
    <path d="M7.99998 3H8.99998C7.04998 8.84 7.04998 15.16 8.99998 21H7.99998" stroke="#7A93CC" stroke-width="1.5" stroke-linecap="round" stroke-linejoin="round"></path>
    <path d="M15 3C16.95 8.84 16.95 15.16 15 21" stroke="#7A93CC" stroke-width="1.5" stroke-linecap="round" stroke-linejoin="round"></path>
    <path d="M3 16V15C8.84 16.95 15.16 16.95 21 15V16" stroke="#7A93CC" stroke-width="1.5" stroke-linecap="round" stroke-linejoin="round"></path>
    <path d="M3 9C8.84 7.05 15.16 7.05 21 9" stroke="#7A93CC" stroke-width="1.5" stroke-linecap="round" stroke-linejoin="round"></path>
  </symbol>
  <symbol fill="none" xmlns="http://www.w3.org/2000/svg" viewBox="0 0 24 24" id="list">
    <path d="M8 12.2H15" stroke="#7A93CC" stroke-width="1.5" stroke-miterlimit="10" stroke-linecap="round" stroke-linejoin="round"></path>
    <path d="M8 16.2H12.38" stroke="#7A93CC" stroke-width="1.5" stroke-miterlimit="10" stroke-linecap="round" stroke-linejoin="round"></path>
    <path d="M10 6H14C16 6 16 5 16 4C16 2 15 2 14 2H10C9 2 8 2 8 4C8 6 9 6 10 6Z" stroke="#7A93CC" stroke-width="1.5" stroke-miterlimit="10" stroke-linecap="round" stroke-linejoin="round"></path>
    <path d="M16 4.02C19.33 4.2 21 5.43 21 10V16C21 20 20 22 15 22H9C4 22 3 20 3 16V10C3 5.44 4.67 4.2 8 4.02" stroke="#7A93CC" stroke-width="1.5" stroke-miterlimit="10" stroke-linecap="round" stroke-linejoin="round"></path>
  </symbol>
  <symbol fill="none" xmlns="http://www.w3.org/2000/svg" viewBox="0 0 32 32" id="profile">
    <path opacity="0.4" d="M16 2.66666C12.5067 2.66666 9.66669 5.50666 9.66669 8.99999C9.66669 12.4267 12.3467 15.2 15.84 15.32C15.9467 15.3067 16.0534 15.3067 16.1334 15.32C16.16 15.32 16.1734 15.32 16.2 15.32C16.2134 15.32 16.2134 15.32 16.2267 15.32C19.64 15.2 22.32 12.4267 22.3334 8.99999C22.3334 5.50666 19.4934 2.66666 16 2.66666Z" fill="#7A93CC"></path>
    <path d="M22.7733 18.8667C19.0533 16.3867 12.9867 16.3867 9.24001 18.8667C7.54668 20 6.61334 21.5333 6.61334 23.1733C6.61334 24.8133 7.54668 26.3333 9.22668 27.4533C11.0933 28.7067 13.5467 29.3333 16 29.3333C18.4533 29.3333 20.9067 28.7067 22.7733 27.4533C24.4533 26.32 25.3867 24.8 25.3867 23.1467C25.3733 21.5067 24.4533 19.9867 22.7733 18.8667Z" fill="#7A93CC"></path>
  </symbol>
  <symbol fill="none" xmlns="http://www.w3.org/2000/svg" viewBox="0 0 32 32" id="profile-2">
    <path opacity="0.4" d="M12 2.66666C8.50669 2.66666 5.66669 5.50666 5.66669 8.99999C5.66669 12.4267 8.34669 15.2 11.84 15.32C11.9467 15.3067 12.0534 15.3067 12.1334 15.32C12.16 15.32 12.1734 15.32 12.2 15.32C12.2134 15.32 12.2134 15.32 12.2267 15.32C15.64 15.2 18.32 12.4267 18.3334 8.99999C18.3334 5.50666 15.4934 2.66666 12 2.66666Z" fill="#7A93CC"></path>
    <path d="M18.7733 18.8667C15.0533 16.3867 8.98668 16.3867 5.24001 18.8667C3.54668 20 2.61334 21.5333 2.61334 23.1733C2.61334 24.8133 3.54668 26.3333 5.22668 27.4533C7.09334 28.7067 9.54668 29.3333 12 29.3333C14.4533 29.3333 16.9067 28.7067 18.7733 27.4533C20.4533 26.32 21.3867 24.8 21.3867 23.1467C21.3733 21.5067 20.4533 19.9867 18.7733 18.8667Z" fill="#7A93CC"></path>
    <path opacity="0.4" d="M26.6534 9.78667C26.8667 12.3733 25.0267 14.64 22.48 14.9467C22.4667 14.9467 22.4667 14.9467 22.4534 14.9467H22.4134C22.3334 14.9467 22.2534 14.9467 22.1867 14.9733C20.8934 15.04 19.7067 14.6267 18.8134 13.8667C20.1867 12.64 20.9734 10.8 20.8134 8.8C20.72 7.72 20.3467 6.73333 19.7867 5.89333C20.2934 5.64 20.88 5.48 21.48 5.42667C24.0934 5.2 26.4267 7.14667 26.6534 9.78667Z" fill="#7A93CC"></path>
    <path d="M29.32 22.12C29.2133 23.4133 28.3867 24.5333 27 25.2933C25.6667 26.0267 23.9867 26.3733 22.32 26.3333C23.28 25.4667 23.84 24.3867 23.9467 23.24C24.08 21.5867 23.2933 20 21.72 18.7333C20.8267 18.0267 19.7867 17.4667 18.6533 17.0533C21.6 16.2 25.3067 16.7733 27.5867 18.6133C28.8133 19.6 29.44 20.84 29.32 22.12Z" fill="#7A93CC"></path>
  </symbol>
  <symbol fill="none" xmlns="http://www.w3.org/2000/svg" viewBox="0 0 32 32" id="profile-add">
    <path d="M16 2.66667C12.5067 2.66667 9.66669 5.50667 9.66669 9C9.66669 12.4267 12.3467 15.2 15.84 15.32C15.9467 15.3067 16.0534 15.3067 16.1334 15.32C16.16 15.32 16.1734 15.32 16.2 15.32C16.2134 15.32 16.2134 15.32 16.2267 15.32C19.64 15.2 22.32 12.4267 22.3334 9C22.3334 5.50667 19.4934 2.66667 16 2.66667Z" fill="#7A93CC"></path>
    <path opacity="0.4" d="M22.7733 18.8667C19.0533 16.3867 12.9867 16.3867 9.24001 18.8667C7.54668 20 6.61334 21.5333 6.61334 23.1733C6.61334 24.8133 7.54668 26.3333 9.22668 27.4533C11.0933 28.7067 13.5467 29.3333 16 29.3333C18.4533 29.3333 20.9067 28.7067 22.7733 27.4533C24.4533 26.32 25.3867 24.8 25.3867 23.1467C25.3733 21.5067 24.4533 19.9867 22.7733 18.8667Z" fill="#7A93CC"></path>
    <path d="M18.6666 22.1733H17V20.5067C17 19.96 16.5466 19.5067 16 19.5067C15.4533 19.5067 15 19.96 15 20.5067V22.1733H13.3333C12.7866 22.1733 12.3333 22.6267 12.3333 23.1733C12.3333 23.72 12.7866 24.1733 13.3333 24.1733H15V25.84C15 26.3867 15.4533 26.84 16 26.84C16.5466 26.84 17 26.3867 17 25.84V24.1733H18.6666C19.2133 24.1733 19.6666 23.72 19.6666 23.1733C19.6666 22.6267 19.2133 22.1733 18.6666 22.1733Z" fill="#7A93CC"></path>
  </symbol>
  <symbol fill="none" xmlns="http://www.w3.org/2000/svg" viewBox="0 0 32 32" id="questions">
    <path opacity="0.4" d="M22.6667 24.5733H17.3334L11.4 28.52C10.52 29.1067 9.33335 28.48 9.33335 27.4133V24.5733C5.33335 24.5733 2.66669 21.9067 2.66669 17.9067V9.90666C2.66669 5.90666 5.33335 3.23999 9.33335 3.23999H22.6667C26.6667 3.23999 29.3334 5.90666 29.3334 9.90666V17.9067C29.3334 21.9067 26.6667 24.5733 22.6667 24.5733Z" fill="#7A93CC"></path>
    <path d="M16 16.1466C15.4533 16.1466 15 15.6933 15 15.1466V14.8667C15 13.32 16.1333 12.56 16.56 12.2667C17.0533 11.9333 17.2133 11.7067 17.2133 11.36C17.2133 10.6933 16.6666 10.1466 16 10.1466C15.3333 10.1466 14.7867 10.6933 14.7867 11.36C14.7867 11.9067 14.3333 12.36 13.7867 12.36C13.24 12.36 12.7867 11.9067 12.7867 11.36C12.7867 9.58668 14.2266 8.14664 16 8.14664C17.7733 8.14664 19.2133 9.58668 19.2133 11.36C19.2133 12.88 18.0933 13.64 17.68 13.92C17.16 14.2667 17 14.4934 17 14.8667V15.1466C17 15.7066 16.5466 16.1466 16 16.1466Z" fill="#7A93CC"></path>
    <path d="M16 19.4666C15.44 19.4666 15 19.0133 15 18.4666C15 17.92 15.4533 17.4666 16 17.4666C16.5467 17.4666 17 17.92 17 18.4666C17 19.0133 16.56 19.4666 16 19.4666Z" fill="#7A93CC"></path>
  </symbol>
  <symbol fill="none" xmlns="http://www.w3.org/2000/svg" viewBox="0 0 32 32" id="save-2">
    <path opacity="0.4" d="M17.1867 7.84H6.81333C4.53333 7.84 2.66669 9.70664 2.66669 11.9866V27.1333C2.66669 29.0667 4.05335 29.8933 5.74668 28.9466L10.9867 26.0266C11.5467 25.72 12.4534 25.72 13 26.0266L18.24 28.9466C19.9333 29.8933 21.32 29.0667 21.32 27.1333V11.9866C21.3333 9.70664 19.4667 7.84 17.1867 7.84Z" fill="#7A93CC"></path>
    <path d="M29.3334 6.8133V21.96C29.3334 23.8933 27.9467 24.7066 26.2534 23.7733L21.3334 21.0266V11.9866C21.3334 9.70664 19.4667 7.84 17.1867 7.84H10.6667V6.8133C10.6667 4.5333 12.5333 2.66666 14.8133 2.66666H25.1867C27.4667 2.66666 29.3334 4.5333 29.3334 6.8133Z" fill="#7A93CC"></path>
  </symbol>
  <symbol fill="none" xmlns="http://www.w3.org/2000/svg" viewBox="0 0 20 20" id="search">
    <path d="M9.58335 17.5C13.9556 17.5 17.5 13.9556 17.5 9.58332C17.5 5.21107 13.9556 1.66666 9.58335 1.66666C5.2111 1.66666 1.66669 5.21107 1.66669 9.58332C1.66669 13.9556 5.2111 17.5 9.58335 17.5Z" stroke="#697899" stroke-width="1.5" stroke-linecap="round" stroke-linejoin="round"></path>
    <path d="M18.3334 18.3333L16.6667 16.6667" stroke="#697899" stroke-width="1.5" stroke-linecap="round" stroke-linejoin="round"></path>
  </symbol>
  <symbol fill="none" xmlns="http://www.w3.org/2000/svg" viewBox="0 0 24 24" id="security">
    <path d="M11.9998 22.7501C11.7598 22.7501 11.5199 22.7201 11.2899 22.6501C6.09986 21.2201 2.33984 16.37 2.33984 11.11V6.72003C2.33984 5.60003 3.14985 4.39008 4.18985 3.96008L9.75986 1.68005C11.2099 1.09005 12.7998 1.09005 14.2398 1.68005L19.8098 3.96008C20.8498 4.39008 21.6599 5.60003 21.6599 6.72003V11.11C21.6599 16.36 17.8898 21.2101 12.7098 22.6501C12.4798 22.7201 12.2398 22.7501 11.9998 22.7501ZM11.9998 2.75006C11.4298 2.75006 10.8698 2.86007 10.3298 3.08007L4.75986 5.36004C4.27986 5.56004 3.83984 6.21004 3.83984 6.73004V11.1201C3.83984 15.7101 7.13985 19.9501 11.6898 21.2101C11.8898 21.2701 12.1098 21.2701 12.3098 21.2101C16.8598 19.9501 20.1599 15.7101 20.1599 11.1201V6.73004C20.1599 6.21004 19.7198 5.56004 19.2398 5.36004L13.6699 3.08007C13.1299 2.86007 12.5698 2.75006 11.9998 2.75006Z" fill="#7A93CC"></path>
    <path d="M12 13.25C10.48 13.25 9.25 12.02 9.25 10.5C9.25 8.98 10.48 7.75 12 7.75C13.52 7.75 14.75 8.98 14.75 10.5C14.75 12.02 13.52 13.25 12 13.25ZM12 9.25C11.31 9.25 10.75 9.81 10.75 10.5C10.75 11.19 11.31 11.75 12 11.75C12.69 11.75 13.25 11.19 13.25 10.5C13.25 9.81 12.69 9.25 12 9.25Z" fill="#7A93CC"></path>
    <path d="M12 16.25C11.59 16.25 11.25 15.91 11.25 15.5V12.5C11.25 12.09 11.59 11.75 12 11.75C12.41 11.75 12.75 12.09 12.75 12.5V15.5C12.75 15.91 12.41 16.25 12 16.25Z" fill="#7A93CC"></path>
  </symbol>
  <symbol fill="none" xmlns="http://www.w3.org/2000/svg" viewBox="0 0 32 32" id="setting">
    <path opacity="0.4" d="M2.66669 17.1733V14.8267C2.66669 13.44 3.80002 12.2933 5.20002 12.2933C7.61335 12.2933 8.60002 10.5867 7.38669 8.49333C6.69335 7.29333 7.10669 5.73333 8.32002 5.04L10.6267 3.72C11.68 3.09333 13.04 3.46666 13.6667 4.52L13.8134 4.77333C15.0134 6.86666 16.9867 6.86666 18.2 4.77333L18.3467 4.52C18.9734 3.46666 20.3334 3.09333 21.3867 3.72L23.6934 5.04C24.9067 5.73333 25.32 7.29333 24.6267 8.49333C23.4134 10.5867 24.4 12.2933 26.8134 12.2933C28.2 12.2933 29.3467 13.4267 29.3467 14.8267V17.1733C29.3467 18.56 28.2134 19.7067 26.8134 19.7067C24.4 19.7067 23.4134 21.4133 24.6267 23.5067C25.32 24.72 24.9067 26.2667 23.6934 26.96L21.3867 28.28C20.3334 28.9067 18.9734 28.5333 18.3467 27.48L18.2 27.2267C17 25.1333 15.0267 25.1333 13.8134 27.2267L13.6667 27.48C13.04 28.5333 11.68 28.9067 10.6267 28.28L8.32002 26.96C7.10669 26.2667 6.69335 24.7067 7.38669 23.5067C8.60002 21.4133 7.61335 19.7067 5.20002 19.7067C3.80002 19.7067 2.66669 18.56 2.66669 17.1733Z" fill="#6695FF"></path>
    <path d="M16 20.3333C18.3933 20.3333 20.3334 18.3932 20.3334 16C20.3334 13.6068 18.3933 11.6667 16 11.6667C13.6068 11.6667 11.6667 13.6068 11.6667 16C11.6667 18.3932 13.6068 20.3333 16 20.3333Z" fill="#6695FF"></path>
  </symbol>
  <symbol fill="none" xmlns="http://www.w3.org/2000/svg" viewBox="0 0 24 24" id="status">
    <path d="M2.45001 14.97C3.52001 18.41 6.40002 21.06 9.98002 21.79" stroke="#7A93CC" stroke-width="1.5" stroke-miterlimit="10" stroke-linecap="round" stroke-linejoin="round"></path>
    <path d="M2.04999 10.98C2.55999 5.93 6.81998 2 12 2C17.18 2 21.44 5.94 21.95 10.98" stroke="#7A93CC" stroke-width="1.5" stroke-miterlimit="10" stroke-linecap="round" stroke-linejoin="round"></path>
    <path d="M14.01 21.8C17.58 21.07 20.45 18.45 21.54 15.02" stroke="#7A93CC" stroke-width="1.5" stroke-miterlimit="10" stroke-linecap="round" stroke-linejoin="round"></path>
  </symbol>
</svg>